<?xml version="1.0" encoding="utf-8"?>
<!-- Generator: Adobe Illustrator 19.0.0, SVG Export Plug-In . SVG Version: 6.00 Build 0)  -->
<svg version="1.1" id="Layer_1" xmlns="http://www.w3.org/2000/svg" xmlns:xlink="http://www.w3.org/1999/xlink" x="0px" y="0px"
	 viewBox="0 0 300 300" style="enable-background:new 0 0 300 300;" xml:space="preserve">
<style type="text/css">
	.st0{fill:#3298CB;}
	.st1{fill:#67B8DE;}
	.st2{fill:#91C8E6;}
	.st3{fill:#B4DCEC;}
	.st4{enable-background:new    ;}
	.st5{fill:#231F20;}
</style>
<g id="XMLID_87_">
	<g id="XMLID_295_">
		<path id="XMLID_293_" class="st0" d="M151.5,215.5H48.6L84,154.2h38.3c-3.4,14.7-0.1,30.4,9.6,42.6
			C137.6,203.9,144.2,210.2,151.5,215.5z"/>
		<path id="XMLID_292_" class="st1" d="M169.7,62.4L153.8,90l-11.3,19.5c-3.8,6.6-10.8,10.6-18.4,10.6h-23.5L135.9,59l15.9-27.6
			L169.7,62.4z"/>
		<polygon id="XMLID_291_" class="st2" points="203,120.1 171.2,120.1 153.8,90 169.7,62.4 		"/>
		<polygon id="XMLID_290_" class="st3" points="258.3,215.9 226.5,215.9 190.9,154.2 222.7,154.2 		"/>
	</g>
	<g class="st4">
	</g>
	<g class="st4">
		<path class="st5" d="M62.6,231.1v22.6h-1.6v-22.6h-7v-1.5h15.6v1.5H62.6z"/>
		<path class="st5" d="M69.2,245.2c0,2.4,0.5,4.2,1.6,5.6c1.1,1.3,2.6,2,4.5,2c1.9,0,3.8-0.7,5.7-2.1v1.6c-1.8,1.3-3.8,1.9-6,1.9
			c-2.2,0-4-0.8-5.4-2.4c-1.4-1.6-2.1-3.8-2.1-6.7c0-2.5,0.7-4.6,2.1-6.3c1.4-1.7,3.3-2.6,5.6-2.6c2.1,0,3.8,0.8,4.9,2.3
			c1.1,1.5,1.7,3.6,1.7,6.2v0.7H69.2z M80.4,243.8c-0.1-2-0.5-3.5-1.4-4.6c-0.9-1.1-2.1-1.6-3.7-1.6c-1.6,0-3,0.5-4,1.6
			c-1.1,1.1-1.7,2.6-2,4.7H80.4z"/>
		<path class="st5" d="M98.4,253c-1.3,0.8-2.8,1.2-4.6,1.2c-2.3,0-4.2-0.8-5.7-2.4c-1.4-1.6-2.2-3.7-2.2-6.3c0-2.7,0.8-5,2.4-6.7
			c1.6-1.7,3.7-2.6,6.2-2.6c1.3,0,2.6,0.3,3.8,0.8v1.8c-1.2-0.8-2.6-1.1-4.1-1.1c-2,0-3.7,0.7-4.9,2.2s-1.9,3.3-1.9,5.6
			c0,2.2,0.6,4,1.7,5.4s2.7,2,4.5,2c1.7,0,3.2-0.5,4.5-1.4V253z"/>
		<path class="st5" d="M115.3,253.7v-10.3c0-2-0.4-3.5-1.1-4.5s-1.9-1.4-3.5-1.4c-1.5,0-2.8,0.6-3.9,1.7c-1.1,1.2-1.7,2.8-1.7,5v9.5
			h-1.5v-25.5h1.5v11.4h0.1c1.4-2.3,3.3-3.5,5.9-3.5c1.9,0,3.3,0.6,4.3,1.8c1,1.2,1.5,2.9,1.5,5.2v10.7H115.3z"/>
		<path class="st5" d="M134.7,253.7v-10c0-4.1-1.5-6.2-4.5-6.2c-1.7,0-3,0.6-4.1,1.8c-1.1,1.2-1.6,2.7-1.6,4.5v9.9H123v-17.2h1.5
			v3.1h0.1c1.3-2.4,3.2-3.5,5.9-3.5c1.9,0,3.3,0.6,4.3,1.9s1.5,3,1.5,5.3v10.5H134.7z"/>
		<path class="st5" d="M149.3,254.1c-2.5,0-4.5-0.8-6-2.5c-1.5-1.7-2.2-3.8-2.2-6.5c0-2.9,0.8-5.1,2.3-6.7c1.5-1.6,3.5-2.4,6-2.4
			c2.5,0,4.4,0.8,5.8,2.4c1.4,1.6,2.1,3.8,2.1,6.7c0,2.7-0.7,4.8-2.2,6.5C153.8,253.3,151.8,254.1,149.3,254.1z M149.4,237.5
			c-2,0-3.6,0.7-4.9,2.1s-1.8,3.3-1.8,5.7c0,2.3,0.6,4.1,1.8,5.4s2.8,2.1,4.8,2.1c2.1,0,3.7-0.7,4.8-2s1.7-3.2,1.7-5.6
			c0-2.5-0.6-4.3-1.7-5.7C153.1,238.1,151.5,237.5,149.4,237.5z"/>
		<path class="st5" d="M162.7,253.7v-25.5h1.5v25.5H162.7z"/>
		<path class="st5" d="M177.7,254.1c-2.5,0-4.5-0.8-6-2.5c-1.5-1.7-2.2-3.8-2.2-6.5c0-2.9,0.8-5.1,2.3-6.7c1.5-1.6,3.5-2.4,6-2.4
			c2.5,0,4.4,0.8,5.8,2.4s2.1,3.8,2.1,6.7c0,2.7-0.7,4.8-2.2,6.5C182.2,253.3,180.2,254.1,177.7,254.1z M177.8,237.5
			c-2,0-3.6,0.7-4.9,2.1c-1.2,1.4-1.8,3.3-1.8,5.7c0,2.3,0.6,4.1,1.8,5.4c1.2,1.4,2.8,2.1,4.8,2.1c2.1,0,3.7-0.7,4.8-2
			c1.1-1.3,1.7-3.2,1.7-5.6c0-2.5-0.6-4.3-1.7-5.7C181.5,238.1,179.9,237.5,177.8,237.5z"/>
		<path class="st5" d="M204.9,252.4c0,3.2-0.7,5.6-2.1,7.1c-1.4,1.5-3.6,2.3-6.6,2.3c-1.7,0-3.4-0.4-5.1-1.3v-1.6
			c1.8,1,3.5,1.5,5.2,1.5c4.8,0,7.1-2.5,7.1-7.5v-2.2h-0.1c-1.4,2.3-3.4,3.5-6.2,3.5c-2.1,0-3.8-0.8-5.2-2.3c-1.3-1.5-2-3.7-2-6.4
			s0.7-5,2.2-6.7c1.4-1.7,3.4-2.6,5.7-2.6c2.5,0,4.4,1,5.5,3.1h0.1v-2.7h1.5V252.4z M203.4,243.1c0-1.5-0.5-2.8-1.5-4
			c-1-1.1-2.4-1.7-4-1.7c-1.9,0-3.4,0.7-4.6,2.1c-1.2,1.4-1.7,3.3-1.7,5.7c0,2.4,0.5,4.2,1.6,5.5c1.1,1.3,2.5,2,4.2,2
			c1.8,0,3.3-0.6,4.4-1.8c1.1-1.2,1.6-2.7,1.6-4.4V243.1z"/>
		<path class="st5" d="M212.2,232.2c-0.3,0-0.6-0.1-0.9-0.4c-0.3-0.2-0.4-0.6-0.4-0.9c0-0.4,0.1-0.7,0.4-0.9
			c0.3-0.2,0.6-0.3,0.9-0.3c0.3,0,0.7,0.1,0.9,0.3s0.4,0.5,0.4,0.9c0,0.4-0.1,0.7-0.4,0.9C212.8,232,212.5,232.2,212.2,232.2z
			 M211.4,253.7v-17.2h1.5v17.2H211.4z"/>
		<path class="st5" d="M219.9,245.2c0,2.4,0.5,4.2,1.6,5.6c1.1,1.3,2.6,2,4.5,2c1.9,0,3.8-0.7,5.7-2.1v1.6c-1.8,1.3-3.8,1.9-6,1.9
			c-2.2,0-4-0.8-5.4-2.4s-2.1-3.8-2.1-6.7c0-2.5,0.7-4.6,2.1-6.3c1.4-1.7,3.3-2.6,5.6-2.6c2.1,0,3.8,0.8,4.9,2.3
			c1.1,1.5,1.7,3.6,1.7,6.2v0.7H219.9z M231,243.8c-0.1-2-0.5-3.5-1.4-4.6c-0.9-1.1-2.1-1.6-3.7-1.6c-1.6,0-3,0.5-4,1.6
			c-1.1,1.1-1.7,2.6-2,4.7H231z"/>
		<path class="st5" d="M237,253v-1.9c0.6,0.5,1.3,0.9,2.1,1.2c0.8,0.3,1.5,0.4,2.2,0.4c2.7,0,4.1-1.1,4.1-3.3c0-0.8-0.3-1.4-0.9-2
			c-0.6-0.5-1.6-1.1-2.9-1.7c-1.6-0.7-2.8-1.5-3.5-2.2c-0.7-0.8-1-1.7-1-2.8c0-1.4,0.5-2.5,1.6-3.4c1.1-0.9,2.4-1.3,4-1.3
			c1.5,0,2.7,0.3,3.8,0.9v1.7c-1.3-0.8-2.6-1.2-4-1.2c-1.1,0-2,0.3-2.7,0.9c-0.7,0.6-1,1.4-1,2.3c0,0.8,0.2,1.5,0.7,2
			c0.4,0.5,1.4,1.1,2.9,1.8c1.8,0.8,3,1.6,3.7,2.2c0.7,0.7,1,1.6,1,2.8c0,1.4-0.5,2.5-1.5,3.4s-2.4,1.3-4.2,1.3
			C239.5,254.1,238.1,253.8,237,253z"/>
	</g>
	<g id="XMLID_288_" class="st4">
		<path class="st5" d="M112.9,150.1H107l-1.7-5.4h-8.6l-1.7,5.4h-5.9l8.8-24.1h6.4L112.9,150.1z M104,140.6l-2.6-8.1
			c-0.2-0.6-0.3-1.3-0.4-2.2h-0.1c-0.1,0.7-0.2,1.4-0.4,2.1l-2.6,8.2H104z"/>
		<path class="st5" d="M156.3,126l-6.4,24.1h-6l-4-15.5c-0.2-0.8-0.3-1.7-0.4-2.7h-0.1c-0.1,1.1-0.2,2-0.4,2.7l-4.1,15.5h-6.3
			l-6.3-24.1h5.9l3.4,16.1c0.1,0.7,0.3,1.6,0.3,2.8h0.1c0-0.9,0.2-1.8,0.5-2.8l4.4-16h5.8l4,16.2c0.1,0.6,0.3,1.5,0.4,2.6h0.1
			c0-0.9,0.2-1.8,0.4-2.7l3.3-16.1H156.3z"/>
		<path class="st5" d="M183.9,150.1h-14.5V126h13.9v4.4h-8.5v5.4h7.9v4.4h-7.9v5.5h9V150.1z"/>
		<path class="st5" d="M212.1,150.1h-14.4V126h5.4v19.7h8.9V150.1z"/>
	</g>
</g>
</svg>
